<?xml version="1.0" encoding="utf-8"?>
<!-- Generator: Adobe Illustrator 19.0.0, SVG Export Plug-In . SVG Version: 6.00 Build 0)  -->
<svg version="1.1" id="Layer_1" xmlns="http://www.w3.org/2000/svg" xmlns:xlink="http://www.w3.org/1999/xlink" x="0px" y="0px"
	 viewBox="41.5 158.4 438.5 225.8" style="enable-background:new 41.5 158.4 438.5 225.8;" xml:space="preserve">
<style type="text/css">
	.st0{fill:#262262;}
	.st1{fill:#262262;stroke:#7F3F98;stroke-width:2;stroke-miterlimit:10;}
	.st2{fill:none;stroke:#7F3F98;stroke-width:2;stroke-miterlimit:10;}
	.st3{fill:#662D91;}
	.st4{fill:#B0E1F2;}
	.st5{fill:#D1D3D4;}
</style>
<g id="Layer_2">
</g>
<g id="Layer_2_copy">
	<path id="XMLID_18_" class="st0" d="M480,288.9v23.2H41.6v-87.4c0-36.6,29.7-66.3,66.3-66.3h214.8c28.1,0,51.4,83.8,56.3,83.8
		c0.6,0,0,0,0,0c0,2.4,2.8,0,5.2,0h49.3C459.2,242.3,480,263.2,480,288.9z"/>
</g>
<g id="Layer_9">
	<path id="XMLID_12_" class="st1" d="M228.7,322.7H53.5V216.3c0-26.2,21.2-47.4,47.4-47.4h127.8L228.7,322.7L228.7,322.7z"/>
	<line id="XMLID_13_" class="st2" x1="199.7" y1="255.2" x2="218.5" y2="255.2"/>
	<path id="XMLID_14_" class="st2" d="M378.3,332.9H228.7V168.8h94.1c9.5,0,18.1,5.7,21.8,14.5c9,21.4,27.6,59,27.6,59L378.3,332.9z"
		/>
</g>
<g id="Layer_10">
</g>
<g id="Layer_8">
	<path id="XMLID_4_" class="st3" d="M480,312.2v9.2c0,11.1-9,20.1-20.1,20.1H64.6c-12.7,0-23.1-10.3-23.1-23.1v-6.3L480,312.2
		L480,312.2z"/>
	<path id="XMLID_10_" class="st4" d="M225.3,242.3H58.6v-28.2c0-22.2,18-40.2,40.2-40.2h126.5V242.3z"/>
	<path id="XMLID_11_" class="st4" d="M345.8,242.3H234.7V174h85c24.8,0,14.3,3.2,45.7,68.4L345.8,242.3L345.8,242.3z"/>
</g>
<g id="Layer_3_copy_5">
	<circle id="XMLID_9_" class="st3" cx="122.7" cy="332.9" r="42.7"/>
	<circle id="XMLID_8_" class="st5" cx="354.9" cy="332.9" r="29.3"/>
</g>
<g id="Layer_3_copy_2">
	<circle id="XMLID_3_" cx="122.7" cy="341.5" r="42.7"/>
	<circle id="XMLID_1_" class="st5" cx="122.7" cy="341.5" r="29.3"/>
</g>
<g id="Layer_3_copy_4">
	<circle id="XMLID_7_" class="st3" cx="354.9" cy="332.9" r="42.7"/>
	<circle id="XMLID_2_" class="st5" cx="354.9" cy="332.9" r="29.3"/>
</g>
<g id="Layer_3_copy_3">
	<circle id="XMLID_6_" cx="354.9" cy="341.5" r="42.7"/>
	<circle id="XMLID_5_" class="st5" cx="354.9" cy="341.5" r="29.3"/>
</g>
</svg>
