<?xml version="1.0" encoding="utf-8"?>
<!-- Generator: Adobe Illustrator 19.0.0, SVG Export Plug-In . SVG Version: 6.00 Build 0)  -->
<svg version="1.1" id="Layer_1" xmlns="http://www.w3.org/2000/svg" xmlns:xlink="http://www.w3.org/1999/xlink" x="0px" y="0px"
	 viewBox="26.7 195.5 446.6 190.8" style="enable-background:new 26.7 195.5 446.6 190.8;" xml:space="preserve">
<style type="text/css">
	.st0{fill:#262262;}
	.st1{fill:#262262;stroke:#7F3F98;stroke-width:2;stroke-miterlimit:10;}
	.st2{fill:none;stroke:#7F3F98;stroke-width:2;stroke-miterlimit:10;}
	.st3{fill:#662D91;}
	.st4{fill:#00AEEF;}
	.st5{fill:#B0E1F2;}
</style>
<g id="Layer_2">
</g>
<g id="Layer_2_copy">
	<path id="XMLID_18_" class="st0" d="M473.3,341.5v26H34.9v-97.8c0-41,40.1-64,66.3-74.2L317.3,207c24.3,6.9,50.1,82.3,54.9,82.3
		c0.6,0,0,0,0,0c0,2.6,2.8,0,5.2,0l42.7,30.2C447.4,290.5,473.3,312.7,473.3,341.5z"/>
</g>
<g id="Layer_13">
</g>
<g id="Layer_9">
	<path id="XMLID_50_" class="st1" d="M222.1,369.9L46.8,359.6V253.2c0-26.2,42.9-37.5,47.4-47.4H222v164.1H222.1z"/>
	<line id="XMLID_49_" class="st2" x1="193" y1="292.1" x2="211.8" y2="292.1"/>
	<path id="XMLID_48_" class="st2" d="M371.6,369.9H222.1V205.8l92.6,13.3c9.5,0,18.1,5.7,21.8,14.5c9,21.4,29.1,45.7,29.1,45.7
		L371.6,369.9z"/>
</g>
<g id="Layer_10">
</g>
<g id="Layer_8">
	<path id="XMLID_178_" class="st3" d="M473.3,349.1v9.2c0,11.1-9,20.1-20.1,20.1H58c-12.7,0-23.1-10.3-23.1-23.1V349L250,363.8
		L473.3,349.1z"/>
	<path id="XMLID_177_" class="st4" d="M218.6,279.3H52v-28.2c0-22.2,37.8-24.4,40.2-40.2h126.5L218.6,279.3L218.6,279.3z"/>
	<path id="XMLID_176_" class="st4" d="M356.1,276.6l-16.9,2.7h-8.5V253c0-2.5-1.9-4.7-4.4-5c-0.2,0-0.4,0-0.6,0c-2.8,0-5,2.3-5,5
		v26.3h-92.5v-68.4l74.7,9.2C333,227.4,318.1,221,356.1,276.6z"/>
	<polyline id="XMLID_1_" class="st5" points="92.1,210.9 98.8,229.3 104.2,210.9 	"/>
	<polyline id="XMLID_6_" class="st5" points="114.6,280.2 122.8,257.7 130.4,272.3 139,257.7 145.3,272.3 157.6,273 162.9,268.9 
		168,272.3 174.9,279.3 	"/>
</g>
<g id="Layer_3_copy_5">
	<path id="XMLID_3_" class="st3" d="M73.2,369.9c0-23.6,19.1-42.7,42.7-42.7s42.7,19.1,42.7,42.7"/>
</g>
<g id="Layer_3_copy_2">
	<path id="XMLID_174_" d="M86.6,378.4c0-16.2,13.1-29.3,29.3-29.3s29.3,13.1,29.3,29.3"/>
</g>
<g id="Layer_3_copy_4">
	<path id="XMLID_2_" class="st3" d="M305.5,369.9c0-23.6,19.1-34.2,42.7-34.2s42.7,10.6,42.7,34.2"/>
	<path id="XMLID_4_" d="M318.1,378.4c0-14.8,13.1-26.8,29.3-26.8s29.3,12,29.3,26.8"/>
</g>
<g id="Layer_3_copy_3">
</g>
<g id="Layer_3_copy_6">
	<path id="XMLID_171_" d="M101.4,386.3l-63.6-4.4c-6.6-0.5-11.6-6.2-11.1-12.8l0.3-4.2c0.5-6.6,6.2-11.6,12.8-11.1l63.6,4.4
		c6.6,0.5,11.6,6.2,11.1,12.8l-0.3,4.2C113.8,381.8,108,386.8,101.4,386.3z"/>
</g>
<g id="Layer_11">
	<g id="XMLID_36_">
		<g id="XMLID_89_">
			<path id="XMLID_93_" d="M310.3,294.8c-1.2,3.7,0,6.8,1.7,10.1c1.1,2.2,2.5,4.2,2.6,6.7c0,3.2-2.2,5.3-4.1,7.5
				c-3.8,4.6-6.7,12.4-0.3,16.2c0-1.4,0-2.9,0-4.3c-4.1,2.9-8.2,5.8-12.3,8.7c-2.6,1.8-0.1,6.2,2.5,4.3c4.1-2.9,8.2-5.8,12.3-8.7
				c1.5-1.1,1.7-3.3,0-4.3c-4-2.4,1.1-8,2.7-10c1.9-2.3,3.6-4.6,4.1-7.6c1.1-6.3-6.3-11.7-4.5-17.4
				C316.1,293,311.3,291.7,310.3,294.8L310.3,294.8z"/>
		</g>
	</g>
	<g id="XMLID_35_">
		<g id="XMLID_83_">
			<path id="XMLID_87_" d="M104.9,292.2c-6.5-1.5-13.1-1.6-19.6,0c-4.2,1.1-10.7,3.2-11.1,8.5c-0.2,3.3,2.4,4.5,0.6,8
				c-1.4,2.7-4.2,4.3-5.3,7.2c-1.4,3.5,0.1,7.3,3.8,8.4c-0.4-1.4-0.7-2.8-1.1-4.2c-1.1,0.9-2.2,1.8-3.3,2.7c-2.5,2,1.1,5.5,3.5,3.5
				c1.1-0.9,2.2-1.8,3.3-2.7c1.5-1.2,0.6-3.7-1.1-4.2c-1.8-0.5,4.4-8,5.2-9.6c1.2-2.5,1.2-3.8,0.9-6.4c-1.3-1.4-1.1-2.9,0.5-4.5
				c0.8-0.3,1.5-0.7,2.3-1c2.1-0.8,4.3-1.3,6.5-1.7c4.6-0.7,9.1-0.4,13.6,0.7C106.7,297.8,108.1,292.9,104.9,292.2L104.9,292.2z"/>
		</g>
	</g>
	<g id="XMLID_34_">
		<g id="XMLID_77_">
			<path id="XMLID_81_" d="M156.3,307.1c3,1.5,5.3,3.9,5.9,7.3c0.4,2,0.1,3.9,0.9,5.8c1.3,3.1,4.3,4.4,7.2,5.6
				c0.8,0.3,2.8,0.8,3.3,1.6c0.1-0.1,0.3-0.2,0.4-0.3c-0.2,0.3-0.5,0.6-0.7,0.9c-0.2,1.2-1.1,2-1,3.4c0.3,3,3,5.1,5.9,4.8
				c3.2-0.3,3.2-5.3,0-5c-1.5,0.2,0.4-2,0.6-2.5c0.5-1.4,0.3-2.3-0.5-3.5c-1.7-2.8-5.2-3.4-7.9-4.7c-4-2-2.8-6.5-4.4-10.2
				c-1.5-3.4-4-5.9-7.3-7.5C156,301.3,153.5,305.6,156.3,307.1L156.3,307.1z"/>
		</g>
	</g>
	<g id="XMLID_16_">
		<g id="XMLID_71_">
			<path id="XMLID_75_" d="M89.8,216.3c0.8,0,0.8-1.3,0-1.3C89,215.1,89,216.3,89.8,216.3L89.8,216.3z"/>
		</g>
	</g>
	<polyline id="XMLID_12_" class="st5" points="228,211.9 238.4,227.4 245.8,211.9 	"/>
	<polyline id="XMLID_13_" class="st5" points="265.4,215.1 261,254.7 281.1,217.9 	"/>
	<polyline id="XMLID_17_" class="st5" points="291.2,279.3 299.6,265.3 306.2,279.3 	"/>
	<polyline id="XMLID_19_" class="st5" points="246.8,279.3 254.6,273 263.2,280.2 	"/>
	<path id="XMLID_58_" d="M330.6,279.3h-10V253c0-2.8,2.3-5,5-5c0.2,0,0.4,0,0.6,0c2.5,0.3,4.4,2.4,4.4,5V279.3z"/>
</g>
<g id="Layer_12">
	<g id="XMLID_5_">
		<g id="XMLID_14_">
			<path id="XMLID_94_" d="M198.7,146.3c0.8,0,0.8-1.3,0-1.3C197.9,145.1,197.9,146.3,198.7,146.3L198.7,146.3z"/>
		</g>
	</g>
</g>
<g id="Layer_14">
	<g id="XMLID_7_">
		<g id="XMLID_29_">
			<path id="XMLID_37_" d="M392,307.1c1,2.1-3.3,6.5-3.8,8.7c-0.8,3.6,1.8,4.4,2.8,7.4c0.4-0.9,0.8-1.9,1.1-2.8c-1.6,1-3.2,2-4.8,3
				c-1.4,0.9-1.6,2.7-0.5,3.9c1.7,1.8,3.5,3.6,5.2,5.4c0.2-1.3,0.3-2.6,0.5-3.9c-2.5,1.4-3.9,3.2-4.8,5.9c-1,3.1,3.9,4.4,4.8,1.3
				c0.3-1.4,1.2-2.4,2.5-2.9c1.4-0.8,1.6-2.8,0.5-3.9c-1.7-1.8-3.5-3.6-5.2-5.4c-0.2,1.3-0.3,2.6-0.5,3.9c1.6-1,3.2-2,4.8-3
				c0.9-0.6,1.5-1.7,1.1-2.8c-0.5-1.5-1.9-2.4-2.4-3.7c-0.7-2,0.9-3.6,1.9-5.4c1.6-2.8,2.4-5.2,1-8.2
				C395,301.7,390.7,304.2,392,307.1L392,307.1z"/>
		</g>
	</g>
	<g id="XMLID_8_">
		<g id="XMLID_40_">
			<path id="XMLID_44_" d="M407.4,314.1c-2.7,3.9-3.3,8.9-1.5,13.4c0.7,1.9,1.9,3.7,3.3,5c0,0,2.4,1.9,2.5,1.8
				c-0.1,0.2-5,1.2-5.5,1.3c-2.7,0.7-2.2,5.1,0.7,4.9c3.4-0.2,6.3,0.5,9,2.7c2.5,2,6-1.5,3.5-3.5c-3.7-3-7.7-4.5-12.5-4.2
				c0.2,1.6,0.4,3.3,0.7,4.9c3.4-0.8,12.3-2.5,9.4-8.1c-1.2-2.3-4.2-2.9-5.6-5.2c-2.1-3.4-1.8-7.3,0.4-10.5
				C413.5,314,409.2,311.5,407.4,314.1L407.4,314.1z"/>
		</g>
	</g>
	<g id="XMLID_10_">
		<g id="XMLID_47_">
			<path id="XMLID_55_" d="M387.6,297.6c-5.1-0.7-10.2,1.8-12.8,6.3c-3.2,5.6-1.1,12.1,2,17.2c1.6,2.8,6,0.2,4.3-2.5
				c-2.1-3.5-4.2-8.2-2-12.1c1.7-3.1,5.2-4.3,8.5-3.8C390.8,303,390.8,298,387.6,297.6L387.6,297.6z"/>
		</g>
	</g>
</g>
</svg>
